<?xml version="1.0" encoding="UTF-8"?>
<!-- Created with Inkscape (http://www.inkscape.org/) -->
<svg width="131.02mm" height="65.532mm" version="1.1" viewBox="0 0 131.02 65.532" xml:space="preserve" xmlns="http://www.w3.org/2000/svg"><g transform="translate(-39.46 -114.21)" fill="none" stroke="#362bff"><path d="m64.448 149.98h0.57064c0.25604 0 0.52391 0.0285 0.77204-0.0336 0.24221-0.0606 0.52983 0.0606 0.77204 0 0.16976-0.0425 0.47811-0.0798 0.63777 0 0.32419 0.16209-0.0626-0.0433 0.16784 0.0336 0.08188 0.0273 0.14975 0.10587 0.23497 0.13427 0.01061 4e-3 0.02566-8e-3 0.03356 0s0 0.0224 0 0.0336c0.30437 0.15456 0.51069 0.42866 0.77204 0.63774 0.063 0.0504 0.13685 0.0859 0.2014 0.13427 0.01119 0.0112 0.02238 0.0224 0.03357 0.0336 0 0.0112-0.0079 0.0257 0 0.0336 0.01921 0.0192 0.08483 0.0195 0.1007 0.0671 0.0071 0.0212-0.01001 0.0471 0 0.0671 0.0089 0.0513 0.07947 0.0582 0.1007 0.1007 0.01582 0.0317 0.01394 0.0713 0.03357 0.1007 0.0062 9e-3 0.02566-8e-3 0.03357 0 0.0079 8e-3 -5e-3 0.0236 0 0.0336 0.02536 0.0507 0.11648 0.0809 0.13427 0.13427 0.0071 0.0212-0.01241 0.0485 0 0.0671 0.01388 0.0208 0.04712 0.0186 0.06713 0.0336 0.03798 0.0285 0.05824 0.0795 0.1007 0.1007 0.02002 0.01 0.04712-0.01 0.06713 0 0.08028 0.0401 0.10475 0.14367 0.2014 0.16783 0.08278 0.0207 0.15924 0.0293 0.23497 0.0671 0.15544 0.0777 0.3586-5e-3 0.5035 0.0671 0.04429 0.0221 0.14324 0.23165 0.16784 0.26853 0.0191 0.0454 0.07437 0.0612 0.1007 0.1007 0.05866 0.088 0.01255 0.0587 0.06713 0.16784 0.04302 0.086 0.13551 0.20512 0.16784 0.3021 0.01621 0.0486 0.0098 0.12029 0.03357 0.16784 0.01804 0.0361 0.05215 0.0632 0.06713 0.1007 0.06616 0.1654-0.01715 0.44384 0.03357 0.57063 0.08434 0.21086 0.1007-0.0179 0.1007 0.26854 0.11475 0.2124 0.11066 0.44267 0.16784 0.67138 0.05343 0.21372 0.11342 0.33912 0.2014 0.53707 0.06917 0.0454 0.01552 0.11371 0.03357 0.16783 5e-3 0.015 0.02856 0.0186 0.03357 0.0336 0.02079 0.0624 0 0.16632 0 0.23497 0 0.34615-0.09607 0.87737 0.16784 1.1413 0.0079 8e-3 0.02238 0 0.03357 0 0.02238 0.0224 0.04958 0.0408 0.06713 0.0671 0.03473 0.0521-0.05702 0.0218 0.03357 0.0671 0.02002 0.01 0.04712-0.01 0.06713 0 0.15378 0.0769 0.33692 0.13477 0.5035 0.2014 0.01469 6e-3 0.01835 0.0292 0.03357 0.0336 0.06544 0.0187 0.13537 0.0171 0.2014 0.0336 0.14385 0.036 0.29068 0.14355 0.43637 0.16783 0.04415 7e-3 0.08986-6e-3 0.13427 0 0.09507 0.0119 0.17733 0.0443 0.26854 0.0671 0.1629 0.0407 0.49384 0 0.67134 0 0.2615 0 0.54852 0.0321 0.80561 0 0.03511-4e-3 0.0658-0.0277 0.1007-0.0336 0.14179-0.0236 0.294 0.0203 0.43637 0 0.03503-5e-3 0.06601-0.0266 0.1007-0.0336 0.16379-0.0328 0.36848 0 0.53707 0 0.07872 0-0.01582-8e-3 0.06713 0.0336 0.05916 0.0296 0.1733 3e-3 0.23497 0.0336 0.04562 0.0228 0.08864 0.0779 0.13427 0.1007 0.10927 0.0546 0.31667 0.11527 0.4028 0.20141 0.01769 0.0177 0.01588 0.0494 0.03357 0.0671 0.02502 0.025 0.07126 0.0139 0.1007 0.0336 0.13788 0.0919 0.25348 0.24234 0.4028 0.33567 0.06551 0.0409 0.18882 0.10769 0.26854 0.13426 0.01062 4e-3 0.02238 0 0.03357 0 0.02238 0 0.0459-7e-3 0.06713 0 0.03002 0.01 0.0408 0.0496 0.06713 0.0671 0.0135 9e-3 0.16442 0.0973 0.16784 0.1007 0.01769 0.0177 0.01969 0.0463 0.03357 0.0671 0.03058 0.0459 0.06257 0.0481 0.1007 0.0671 0.06408 0.032 0.08361 0.11717 0.13427 0.16783 0.01769 0.0177 0.04944 0.0159 0.06713 0.0336 0.01723 0.0172 0.07336 0.13738 0.13427 0.16783 0.078 0.039-0.01051-0.11822 0.1007 0.0671 0.0182 0.0303 0.01536 0.0704 0.03357 0.1007 0.03198 0.0533 0.09983 0.0826 0.13427 0.13426 0.04035 0.0605 0.0946 0.10834 0.13427 0.16784 0.0062 9e-3 -0.0079 0.0257 0 0.0336 0.0079 8e-3 0.02566-8e-3 0.03357 0 0.01543 0.0154 0.08562 0.10913 0.1007 0.13426 0.0175 0.0292 0.14685 0.28112 0.16784 0.30211 0.02198 0.022 0.07757 0.0209 0.1007 0.0671 0.02315 0.0463-0.04065 0.03 0.03357 0.0671 0.01001 5e-3 0.02462-7e-3 0.03357 0 0.03798 0.0285 0.05949 0.0771 0.1007 0.1007 0.04006 0.0229 0.09421 0.0107 0.13427 0.0336 0.04122 0.0236 0.05707 0.082 0.1007 0.1007 0.04114 0.0176 0.09038-9e-3 0.13427 0 0.01552 3e-3 0.01856 0.0286 0.03357 0.0336 0.04075 0.0136 0.1223 0 0.16783 0 0.08336 0 0.26362 0.036 0.33567 0 0.05341-0.0267 0.07979-0.0924 0.1007-0.13427 0.02598-0.052 0.15121-0.16794 0.2014-0.2014 0.0093-6e-3 0.02736 9e-3 0.03357 0 0.0083-0.0124 0.09418-0.17533 0.1007-0.2014 0.0054-0.0217-0.0071-0.0459 0-0.0671 0.01343-0.0403 0.08727-0.0604 0.1007-0.1007 0.0071-0.0212-0.01001-0.0471 0-0.0671 0.01415-0.0283 0.05085-0.04 0.06713-0.0671 0.01284-0.0214 0.0803-0.18101 0.1007-0.20141 0.04111-0.0411 0.09854-0.0471 0.13427-0.1007 0.05866-0.088 0.01255-0.0587 0.06713-0.16783 0.1316-0.26321 0.31052-0.52034 0.43637-0.77204 0.03067-0.0614 0.09163-0.11454 0.13427-0.16783 0.12438-0.15548 0.24534-0.31507 0.36924-0.46994 0.08545-0.10681 0.20544-0.17592 0.26854-0.3021 0.0769-0.15381 0.13667-0.30812 0.2014-0.46994 0.0442-0.11051 0.2088-0.34479 0.23497-0.43637 0.0123-0.043-0.0088-0.0904 0-0.13427 0.0074-0.0368 0.08881-0.0493 0.1007-0.0671 0.01241-0.0186-0.01001-0.0471 0-0.0671 0.03357-0.0671 0.06713-0.0504 0.1007-0.1007 0.05688-0.0853 0.11492-0.18034 0.16783-0.26853 0.06722-0.11204 0.08782-0.26256 0.16784-0.36924 0.07748-0.1033 0.13379-0.21195 0.2014-0.3021 0.01899-0.0253 0.05085-0.04 0.06713-0.0671 0.03641-0.0607 0.03073-0.14072 0.06713-0.2014 0.01628-0.0271 0.04958-0.0408 0.06713-0.0671 0.01051-0.0158 0.02306-0.0849 0.03357-0.1007 0.05867-0.088 0.13269-0.16309 0.16783-0.26853 0.0071-0.0212-0.0071-0.0459 0-0.0671 0.01769-0.0531 0.07992-0.0823 0.1007-0.13427 0.02284-0.0571 0.01518-0.14944 0.06713-0.2014 0.0079-8e-3 0.02238 0 0.03357 0 0-0.0224-0.01001-0.0471 0-0.0671 5e-3 -0.01 0.02856 0.01 0.03357 0 0.01969-0.0394 0.01192-0.12454 0.03357-0.16784 0.01415-0.0283 0.05298-0.0388 0.06713-0.0671 0.01501-0.03-0.0081-0.0681 0-0.1007 0.0061-0.0243 0.02238-0.0448 0.03357-0.0671 0.01119-0.0559 0.0255-0.11136 0.03357-0.16784 0.0062-0.0435-0.0093-0.13054 0-0.16783 0.0038-0.0154 0.02649-0.0194 0.03357-0.0336 0.04488-0.0898-0.01499-0.26433 0-0.36924 0.01001-0.0701 0.05326-0.13201 0.06713-0.2014 0.01506-0.0753-0.01506-0.15966 0-0.23497 0.0098-0.0491 0.05732-0.0852 0.06713-0.13426 0.0088-0.0439-0.01415-0.0918 0-0.13427 0.04774-0.14322 0.06433-0.2909 0.1007-0.43637 0.01985-0.0794 0.07755-0.15393 0.1007-0.23497 0.06841-0.23943 0.13469-0.47079 0.23497-0.67134 0.01001-0.02-0.01582-0.0513 0-0.0671 0.0079-8e-3 0.02566 8e-3 0.03357 0 0.02449-0.0245 0.04917-0.17146 0.06713-0.2014 0.06185-0.10308 0.17588-0.20807 0.2014-0.33567 0.0066-0.0329-0.01247-0.0695 0-0.1007 0.02661-0.0665 0.10223-0.10376 0.13427-0.16784 0.05564-0.11128 0.13394-0.22322 0.2014-0.33567 0.06937-0.11562 0.21013-0.18528 0.26854-0.3021 0.03357-0.0671 0.13427-0.1007 0.16784-0.16783 0.01001-0.02-0.01001-0.0471 0-0.0671 2e-3 -4e-3 0.09526-0.0281 0.1007-0.0336 0.01769-0.0177 0.01588-0.0494 0.03357-0.0671 0.04111-0.0411 0.09854-0.0471 0.13427-0.1007 0.01388-0.0208 0.01587-0.0494 0.03357-0.0671 0.025-0.025 0.1153-0.0482 0.13427-0.0671 0.04111-0.0411 0.04711-0.0985 0.1007-0.13426 0.04483-0.0299 0.13009-0.063 0.16784-0.1007 0.01769-0.0177 0.01588-0.0494 0.03357-0.0671 0.04959-0.0496 0.14238-0.0949 0.2014-0.13427 0.09522-0.0635 0.23687-0.22382 0.3021-0.3021 0.05471-0.0657 0.13098-0.16126 0.16784-0.23497 5e-3 -0.01-0.01001-0.0286 0-0.0336 0.02002-0.01 0.04712 0.01 0.06713 0 1e-3 -5.2e-4 0.25792-0.22436 0.26854-0.23497" stroke-width=".26458"/><rect x="39.561" y="114.31" width="130.82" height="65.331" stroke-width=".20062"/></g></svg>
