<?xml version="1.0" encoding="UTF-8" standalone="no"?>
<!-- Created with Inkscape (http://www.inkscape.org/) -->

<svg
   width="158.75mm"
   height="211.66667mm"
   viewBox="0 0 158.75 211.66667"
   version="1.1"
   id="svg1"
   xml:space="preserve"
   inkscape:version="1.4 (86a8ad7, 2024-10-11)"
   sodipodi:docname="cattle-marker.svg"
   xmlns:inkscape="http://www.inkscape.org/namespaces/inkscape"
   xmlns:sodipodi="http://sodipodi.sourceforge.net/DTD/sodipodi-0.dtd"
   xmlns="http://www.w3.org/2000/svg"
   xmlns:svg="http://www.w3.org/2000/svg"><sodipodi:namedview
     id="namedview1"
     pagecolor="#ffffff"
     bordercolor="#000000"
     borderopacity="0.25"
     inkscape:showpageshadow="2"
     inkscape:pageopacity="0.0"
     inkscape:pagecheckerboard="0"
     inkscape:deskcolor="#d1d1d1"
     inkscape:document-units="mm"
     inkscape:zoom="0.34835028"
     inkscape:cx="113.39161"
     inkscape:cy="455.00178"
     inkscape:window-width="1366"
     inkscape:window-height="705"
     inkscape:window-x="-8"
     inkscape:window-y="-8"
     inkscape:window-maximized="1"
     inkscape:current-layer="layer1" /><defs
     id="defs1" /><g
     inkscape:label="Layer 1"
     inkscape:groupmode="layer"
     id="layer1"
     transform="translate(-26.407546,-24.179834)"><g
       style="fill:#000000"
       id="g1"
       transform="matrix(8.8194444,0,0,8.8194444,26.407546,24.179834)"><path
         d="M 8.075,23.52 C 1.264,13.642 0,12.629 0,9 0,4.029 4.029,0 9,0 c 4.971,0 9,4.029 9,9 0,3.629 -1.264,4.64 -8.075,14.516 C 9.719,23.81 9.382,24 9,24 8.618,24 8.281,23.81 8.078,23.52 L 8.076,23.516 Z"
         id="path1"
         style="fill:#0000ff;fill-opacity:1"
         sodipodi:nodetypes="cssscsccc" /></g><path
       d="m 166.97886,94.062113 c 0,10.143057 -10.04723,5.115848 -10.04723,5.115848 l -8.38142,1.518409 h -11.05746 a 39.142949,39.142949 0 0 1 -11.05719,14.7432 24.119724,24.119724 0 0 1 -3.8554,8.29308 c -0.56838,0.67145 -0.443,1.47388 -0.50151,2.43229 l 0.67146,16.95453 a 1.9460901,1.9460901 0 0 1 -1.96141,1.84162 1.7839161,1.7839161 0 0 1 -1.7246,-1.5101 l -3.68573,-24.32624 H 85.892268 v 23.97965 a 1.8207737,1.8207737 0 0 1 -1.822106,1.81933 1.8428883,1.8428883 0 0 1 -1.769175,-1.47384 l -3.781566,-20.64053 v -3.68574 a 60.446736,60.446736 0 0 1 -10.51167,-0.73833 13.902751,13.902751 0 0 1 -4.968458,10.51198 c -0.944486,0.61291 -1.092149,1.55465 -0.980708,2.84545 l 1.401407,11.33746 a 1.8428883,1.8428883 0 0 1 -1.841605,1.8416 1.7544296,1.7544296 0 0 1 -1.696731,-1.28159 l -3.147735,-12.5319 a 2.5800438,2.5800438 0 0 1 0.403976,-2.21215 c 3.221573,-5.01276 -0.362189,-18.79753 -0.362189,-18.79753 a 9.981083,9.981083 0 0 1 -0.412345,-2.61057 V 89.634176 A 14.942139,14.942139 0 0 1 76.57194,75.525091 c 0,0 0.738313,0.222805 1.047572,0.362214 a 111.67904,111.67904 0 0 0 28.115328,0.281405 l 1.32619,-0.456896 a 13.578401,13.578401 0 0 1 9.2883,0 c 0.57394,0.139371 1.13392,0.367731 1.66608,0.657515 0.73831,0.362178 1.44598,0.7801 2.11465,1.25931 a 13.268796,13.268796 0 0 0 6.30272,0.950076 h 7.37145 v -7.37149 l 3.68573,3.685745 c 3.68574,-11.057187 18.42893,-7.371479 18.42893,-7.371479 a 12.43581,12.43581 0 0 0 -11.05746,7.371479 l 18.42892,14.743196 a 4.5113907,4.5113907 0 0 1 1.37077,-0.509864 2.3441541,2.3441541 0 0 1 2.31525,2.365416 z"
       id="path1-2"
       style="fill:#ffffff;fill-opacity:1;stroke-width:7.37155" /></g></svg>
